<svg width="40" height="40" viewBox="0 0 40 40" fill="none" xmlns="http://www.w3.org/2000/svg">
<circle cx="20" cy="20" r="20" fill="#272343"/>
<path d="M23.9812 21.2867C22.6218 21.293 22.0159 22.0458 19.8128 22.056C17.5629 22.0664 16.95 21.3193 15.5907 21.3255C12.122 21.3416 9.32271 24.2139 9.33876 27.6827L9.34418 28.8545C9.35003 30.1201 10.339 31.0999 11.6046 31.0941L28.1044 31.0178C29.3231 31.0121 30.3498 30.023 30.344 28.7574L30.3385 27.5855C30.3225 24.1168 27.4499 21.2707 23.9812 21.2867ZM28.094 28.7678L11.5942 28.8441L11.5887 27.6723C11.5783 25.4223 13.3511 23.5859 15.6011 23.5755C16.3042 23.5723 17.3858 24.3173 19.8232 24.306C22.2138 24.2949 23.2885 23.54 23.9916 23.5367C26.2416 23.5263 28.0781 25.3459 28.0886 27.5959L28.094 28.7678ZM19.8059 20.556C23.509 20.5389 26.542 17.5248 26.5246 13.7749C26.5075 10.0718 23.4465 7.03905 19.7434 7.05618C15.9935 7.07353 13.0076 10.1343 13.0247 13.8373C13.0421 17.5873 16.0559 20.5734 19.8059 20.556ZM19.7539 9.30616C22.1913 9.29488 24.2633 11.3478 24.2746 13.7853C24.2861 16.2696 22.233 18.2948 19.7955 18.3061C17.3111 18.3176 15.2862 16.3113 15.2747 13.8269C15.2634 11.3895 17.2695 9.31765 19.7539 9.30616Z" fill="#BAE8E8"/>
</svg>
